<svg width="26" height="23" viewBox="0 0 26 23" fill="none" xmlns="http://www.w3.org/2000/svg">
<g clip-path="url(#clip0_163_3069)">
<path d="M8.5 19.5C8.5 20.8807 7.38071 22 6 22C4.61929 22 3.5 20.8807 3.5 19.5C3.5 18.1193 4.61929 17 6 17C7.38071 17 8.5 18.1193 8.5 19.5Z" fill="black" stroke="black" stroke-width="2"/>
<path d="M22.7596 19.4886C22.7596 20.8694 21.6403 21.9886 20.2596 21.9886C18.8789 21.9886 17.7596 20.8694 17.7596 19.4886C17.7596 18.1079 18.8789 16.9886 20.2596 16.9886C21.6403 16.9886 22.7596 18.1079 22.7596 19.4886Z" fill="black" stroke="black" stroke-width="2"/>
<path d="M22.5 8.49995C22.3616 8.49995 19.6107 8.32157 19.5 8.5C19.3893 8.67842 19.3425 10.9999 19.5 10.9999C19.6575 10.9999 24.0351 11.0683 23.9997 10.9453C23.9644 10.8223 22.6384 8.49995 22.5 8.49995Z" fill="black" stroke="black" stroke-width="2"/>
<path d="M15.5 4.5C15.5 4.5 15.5 1.19177 15.5 1C15.5 0.808234 1.04815 1.00002 1 1.00002C0.951844 1.00003 1.05297 6.48747 1.05297 6.48747L1.05299 15.6865C1.05299 15.6865 1.01397 19 1.05298 19C1.092 19 24.8499 19 24.9092 19C24.9686 19 25.1597 12.8216 24.7057 11.9587C24.2517 11.0958 20.1203 4.7634 20.003 4.63828C19.8858 4.51315 15.5 4.5 15.5 4.5ZM15.5 4.5V18.5" stroke="black" stroke-width="2"/>
</g>
<defs>
<clipPath id="clip0_163_3069">
<rect width="26" height="23" fill="white"/>
</clipPath>
</defs>
</svg>
