<svg width="26" height="23" viewBox="0 0 26 23" fill="none" xmlns="http://www.w3.org/2000/svg">
<g clip-path="url(#clip0_163_3069)">
<path d="M9 19.5C9 20.8807 7.88071 22 6.5 22C5.11929 22 4 20.8807 4 19.5C4 18.1193 5.11929 17 6.5 17C7.88071 17 9 18.1193 9 19.5Z" fill="black" stroke="black" stroke-width="2"/>
<path d="M22 19.5C22 20.8808 20.8807 22 19.5 22C18.1193 22 17 20.8808 17 19.5C17 18.1193 18.1193 17 19.5 17C20.8807 17 22 18.1193 22 19.5Z" fill="black" stroke="black" stroke-width="2"/>
<path d="M22.5 8.49995C22.3616 8.49995 19.6107 8.32157 19.5 8.5C19.3893 8.67842 19.3425 10.9999 19.5 10.9999C19.6575 10.9999 24.0351 11.0683 23.9997 10.9453C23.9644 10.8223 22.6384 8.49995 22.5 8.49995Z" fill="black" stroke="black" stroke-width="2"/>
<path d="M15.5 4.5C15.5 4.5 15.5 1.19177 15.5 1C15.5 0.808234 1.04815 1.00002 1 1.00002C0.951844 1.00003 1.05297 6.48747 1.05297 6.48747L1.05299 15.6865C1.05299 15.6865 1.01397 19 1.05298 19C1.092 19 24.8499 19 24.9092 19C24.9686 19 25.1597 12.8216 24.7057 11.9587C24.2517 11.0958 20.1203 4.7634 20.003 4.63828C19.8858 4.51315 15.5 4.5 15.5 4.5ZM15.5 4.5V18.5" stroke="black" stroke-width="2"/>
</g>
<defs>
<clipPath id="clip0_163_3069">
<rect width="26" height="23" fill="white"/>
</clipPath>
</defs>
</svg>
