<svg width="26" height="23" viewBox="0 0 26 23" fill="none" xmlns="http://www.w3.org/2000/svg">
<g clip-path="url(#clip0_150_2805)">
<path d="M2.67195 5.47021C2.67195 5.47021 2.44856 22 2.60107 22C2.75358 22 23.2301 22 23.3944 22C23.5586 22 23.3235 5.47021 23.3235 5.47021M2.67195 5.47021C2.67195 5.47021 1.04157 5.51731 1.04157 5.47021C1.04157 5.4231 0.948043 1 1.04156 1C1.13509 0.999998 24.8501 1.00001 24.9539 1C25.0577 0.999992 24.9539 5.42389 24.9539 5.47021C24.9539 5.51653 23.3235 5.47021 23.3235 5.47021M2.67195 5.47021H23.3235" stroke="black" stroke-width="2" stroke-linecap="round"/>
<path d="M15.5 2.50005V13.2054L13.2164 12.1092L13 12.0054L12.7837 12.1092L10.5 13.2054V2.5L15.5 2.50005Z" fill="black" stroke="black"/>
</g>
<defs>
<clipPath id="clip0_150_2805">
<rect width="26" height="23" fill="white"/>
</clipPath>
</defs>
</svg>
